<svg xmlns="http://www.w3.org/2000/svg" width="16" height="16">
  <path d="M 9.7148438 0 C 9.0817007 0 8.5722656 0.50943515 8.5722656 1.1425781 C 8.5722656 1.9997211 9.4031524 2.5001071 9.4277344 3.1425781 C 9.4453944 3.6039501 9.4277354 3.714286 8.5996094 4 L 4 4 L 4 8.5722656 C 3.714286 9.4294076 3.6088271 9.4161894 3.1425781 9.4277344 C 2.5450351 9.4425344 1.9997211 8.5722656 1.1425781 8.5722656 C 0.50943515 8.5722656 0 9.0817007 0 9.7148438 L 0 10.857422 C 0 11.490565 0.50943515 12 1.1425781 12 C 1.9997211 12 2.5001071 11.167161 3.1425781 11.142578 C 3.6039501 11.124918 3.714286 11.142577 4 11.970703 L 4 16 L 10 16 L 10 10 L 12.015625 10 L 12.015625 9.7148438 C 12.015625 9.0817007 12.52506 8.5722656 13.158203 8.5722656 C 14.015346 8.5722656 14.560657 9.4425344 15.158203 9.4277344 C 15.615691 9.4164204 15.72612 9.4226124 16 8.6132812 L 16 4 L 12 4 C 11.142857 3.714286 11.154124 3.6088271 11.142578 3.1425781 C 11.127778 2.5450351 12 1.9997211 12 1.1425781 C 12 0.50943515 11.490565 0 10.857422 0 L 9.7148438 0 z M 11 11 L 11 16 L 16 16 L 16 11 L 11 11 z M 12 12 L 13 12 L 13 13 L 14 13 L 14 12 L 15 12 L 15 14 L 14 14 L 14 15 L 13 15 L 13 14 L 12 14 L 12 12 z " fill="#c0bfbc" />
</svg>
