<?xml version="1.0" encoding="UTF-8"?>
<svg version="1.0" viewBox="0 0 128 128" xmlns="http://www.w3.org/2000/svg">
<defs>
<linearGradient id="a" x1="2" x2="30" y1="17" y2="17" gradientTransform="matrix(4,0,0,4,0,170)" gradientUnits="userSpaceOnUse">
<stop stop-color="#c0bfbc" offset="0"/>
<stop stop-color="#c0bfbc" offset=".14286"/>
<stop stop-color="#deddda" offset=".25"/>
<stop stop-color="#c0bfbc" stop-opacity=".93852" offset=".5"/>
<stop stop-color="#c0bfbc" stop-opacity=".98361" offset="1"/>
</linearGradient>
</defs>
<g transform="translate(0,-172)">
<path d="m64 182c-30.928 0-56 25.072-56 56s25.072 56 56 56 56-25.072 56-56-25.072-56-56-56zm0 36a20 20 0 0 1 20 20 20 20 0 0 1 -20 20 20 20 0 0 1 -20 -20 20 20 0 0 1 20 -20z" enable-background="new" fill="url(#a)" stroke-width="4"/>
<path d="m64 180c-30.928 0-56 25.072-56 56s25.072 56 56 56 56-25.072 56-56-25.072-56-56-56zm0 36a20 20 0 0 1 20 20 20 20 0 0 1 -20 20 20 20 0 0 1 -20 -20 20 20 0 0 1 20 -20z" enable-background="new" fill="#deddda" stroke-width="4"/>
<path d="m64 216a20 20 0 0 0 -20 20 20 20 0 0 0 20 20 20 20 0 0 0 20 -20 20 20 0 0 0 -20 -20zm0 12a8 8 0 0 1 8 8 8 8 0 0 1 -8 8 8 8 0 0 1 -8 -8 8 8 0 0 1 8 -8z" enable-background="new" fill="#c0bfbc" fill-opacity=".94672" stroke-width="4"/>
<path d="m64 180v36a20 20 0 0 1 14.133 5.8672l25.469-25.469c-10.134-10.134-24.138-16.398-39.602-16.398zm-14.133 70.132-25.469 25.469c10.134 10.134 24.138 16.398 39.602 16.398v-36a20 20 0 0 1 -14.133 -5.8672z" enable-background="new" fill="#f6f5f4" opacity=".5" stroke-width="4"/>
<path d="m64 212a24 24 0 0 0 -24 24 24 24 0 0 0 24 24 24 24 0 0 0 24 -24 24 24 0 0 0 -24 -24zm0 4a20 20 0 0 1 20 20 20 20 0 0 1 -20 20 20 20 0 0 1 -20 -20 20 20 0 0 1 20 -20z" enable-background="new" fill="#9a9996" fill-opacity=".94672" stroke-width="4"/>
<path d="m117.05 250h-14c-3-1-2.9596-1.3681-3-3-0.0518-2.0914 3-4 3-7 0-2.216-1.784-4-4-4h-4c-2.216 0-4 1.784-4 4 0 3 2.914 4.7514 3 7 0.0618 1.6148 0 2-2.8984 3h-16.102v16c-1 3-1.3681 2.9596-3 3-2.0914 0.0518-4-3-7-3-2.216 0-4 1.784-4 4v4c0 2.216 1.784 4 4 4 3 0 4.7514-2.914 7-3 1.6148-0.0618 2 0 3 2.8984v14.102h42v-14.246c-0.95907-2.7399-1.3629-2.8146-2.9473-2.7539-2.2486 0.086-4 3-7 3-2.216 0-4-1.784-4-4v-4c0-2.216 1.784-4 4-4 3 0 4.9086 3.0518 7 3 1.6012-0.0396 1.9887-0.0189 2.9473-2.8516z" enable-background="new" fill="#1a5fb4"/>
<path d="m117 248h-14c-3-1-2.9596-1.3681-3-3-0.0518-2.0914 3-4 3-7 0-2.216-1.784-4-4-4h-4c-2.216 0-4 1.784-4 4 0 3 2.914 4.7514 3 7 0.0618 1.6148 2e-6 2-2.8984 3h-16.102v16c-1 3-1.3681 2.9596-3 3-2.0914 0.0518-4-3-7-3-2.216 0-4 1.784-4 4v4c0 2.216 1.784 4 4 4 3 0 4.7514-2.914 7-3 1.6148-0.0618 2 0 3 2.8984v14.102h42v-14.246c-0.95907-2.7399-1.3629-2.8146-2.9473-2.7539-2.2486 0.086-4 3-7 3-2.216 0-4-1.784-4-4v-4c0-2.216 1.784-4 4-4 3 0 4.9086 3.0518 7 3 1.6012-0.0396 1.9887-0.0189 2.9473-2.8516z" fill="#3584e4"/>
</g>
</svg>
