<?xml version="1.0" encoding="UTF-8" standalone="no"?>
<svg
   xmlns:dc="http://purl.org/dc/elements/1.1/"
   xmlns:cc="http://creativecommons.org/ns#"
   xmlns:rdf="http://www.w3.org/1999/02/22-rdf-syntax-ns#"
   xmlns:svg="http://www.w3.org/2000/svg"
   xmlns="http://www.w3.org/2000/svg"
   viewBox="0 0 128 128"
   style="display:inline;enable-background:new"
   version="1.0"
   id="svg11300"
   height="128"
   width="128">
  <title
     id="title4162">Adwaita Icon Template</title>
  <defs
     id="defs3">
    <linearGradient
       gradientTransform="matrix(4,0,0,4,0,170)"
       id="a-6"
       x1="2"
       x2="30"
       y1="17"
       y2="17"
       gradientUnits="userSpaceOnUse">
      <stop
         stop-color="#c0bfbc"
         offset="0"
         id="stop1624-2" />
      <stop
         stop-color="#c0bfbc"
         offset=".14286"
         id="stop1626-6" />
      <stop
         stop-color="#deddda"
         offset=".25"
         id="stop1628-1" />
      <stop
         stop-color="#c0bfbc"
         stop-opacity=".93852"
         offset=".5"
         id="stop1630-8" />
      <stop
         stop-color="#c0bfbc"
         stop-opacity=".98361"
         offset="1"
         id="stop1632-7" />
    </linearGradient>
  </defs>
  <metadata
     id="metadata4">
    <rdf:RDF>
      <cc:Work
         rdf:about="">
        <dc:format>image/svg+xml</dc:format>
        <dc:type
           rdf:resource="http://purl.org/dc/dcmitype/StillImage" />
        <dc:creator>
          <cc:Agent>
            <dc:title>GNOME Design Team</dc:title>
          </cc:Agent>
        </dc:creator>
        <dc:source />
        <cc:license
           rdf:resource="http://creativecommons.org/licenses/by-sa/4.0/" />
        <dc:title>Adwaita Icon Template</dc:title>
        <dc:subject>
          <rdf:Bag />
        </dc:subject>
        <dc:date />
        <dc:rights>
          <cc:Agent>
            <dc:title />
          </cc:Agent>
        </dc:rights>
        <dc:publisher>
          <cc:Agent>
            <dc:title />
          </cc:Agent>
        </dc:publisher>
        <dc:identifier />
        <dc:relation />
        <dc:language />
        <dc:coverage />
        <dc:description />
        <dc:contributor>
          <cc:Agent>
            <dc:title />
          </cc:Agent>
        </dc:contributor>
      </cc:Work>
      <cc:License
         rdf:about="http://creativecommons.org/licenses/by-sa/4.0/">
        <cc:permits
           rdf:resource="http://creativecommons.org/ns#Reproduction" />
        <cc:permits
           rdf:resource="http://creativecommons.org/ns#Distribution" />
        <cc:requires
           rdf:resource="http://creativecommons.org/ns#Notice" />
        <cc:requires
           rdf:resource="http://creativecommons.org/ns#Attribution" />
        <cc:permits
           rdf:resource="http://creativecommons.org/ns#DerivativeWorks" />
        <cc:requires
           rdf:resource="http://creativecommons.org/ns#ShareAlike" />
      </cc:License>
    </rdf:RDF>
  </metadata>
  <g
     transform="translate(0,-172)"
     style="display:inline"
     id="layer1">
    <g
       style="display:none"
       id="layer2">
      <text
         id="context"
         y="148.65199"
         x="7.9499588"
         style="font-style:normal;font-variant:normal;font-weight:normal;font-stretch:normal;font-size:5.33333349px;line-height:125%;font-family:Cantarell;-inkscape-font-specification:'Cantarell, Normal';text-align:start;writing-mode:lr-tb;text-anchor:start;display:inline;fill:#000000;fill-opacity:1;stroke:none;stroke-width:0.33264872;enable-background:new"
         xml:space="preserve"><tspan
           style="font-size:5.33333349px;stroke-width:0.33264872"
           y="148.65199"
           x="7.9499588"
           id="tspan2716">apps</tspan></text>
      <text
         xml:space="preserve"
         style="font-style:normal;font-variant:normal;font-weight:bold;font-stretch:normal;font-size:5.33333349px;line-height:125%;font-family:Cantarell;-inkscape-font-specification:'Cantarell, Bold';text-align:start;writing-mode:lr-tb;text-anchor:start;display:inline;fill:#000000;fill-opacity:1;stroke:none;stroke-width:0.33264872;enable-background:new"
         x="7.7533054"
         y="157.23398"
         id="text3021"><tspan
           style="font-size:5.33333349px;stroke-width:0.33264872"
           id="tspan3023"
           x="7.7533054"
           y="157.23398">org.gnome.</tspan></text>
      <g
         id="g12027"
         transform="matrix(7.9911709,0,0,8.0036407,-167.7909,-4846.0776)"
         style="display:inline;fill:#000000;enable-background:new" />
      <rect
         y="172"
         x="9.2651362e-08"
         height="128"
         width="128"
         id="rect13805"
         style="display:inline;overflow:visible;visibility:visible;fill:#f0f0f0;fill-opacity:1;fill-rule:nonzero;stroke:none;stroke-width:0.5;marker:none;enable-background:accumulate" />
      <g
         transform="translate(-24,24)"
         style="fill:none;fill-opacity:0.25098039;stroke:#a579b3;stroke-opacity:1"
         id="g883" />
      <g
         transform="translate(-24,24)"
         style="fill:none;fill-opacity:0.25098039;stroke:#a579b3;stroke-opacity:1"
         id="g900" />
      <g
         transform="matrix(0.25,0,0,0.25,6.9488522e-8,225)"
         id="g1168">
        <circle
           style="opacity:0.1;fill:#2864b0;fill-opacity:1;stroke:none;stroke-width:1;stroke-linecap:butt;stroke-linejoin:miter;stroke-miterlimit:4;stroke-dasharray:none;stroke-dashoffset:0;stroke-opacity:1;marker:none;marker-start:none;marker-mid:none;marker-end:none;paint-order:normal"
           id="path1142"
           r="240"
           cy="44"
           cx="256" />
        <rect
           style="opacity:0.1;fill:#2864b0;fill-opacity:1;stroke:none;stroke-width:1;stroke-linecap:butt;stroke-linejoin:miter;stroke-miterlimit:4;stroke-dasharray:none;stroke-dashoffset:0;stroke-opacity:1;marker:none;marker-start:none;marker-mid:none;marker-end:none;paint-order:normal"
           id="rect1110"
           width="319.99979"
           height="448"
           x="96"
           y="-180"
           rx="32"
           ry="32" />
        <rect
           style="display:inline;opacity:0.1;fill:#2864b0;fill-opacity:1;stroke:none;stroke-width:1;stroke-linecap:butt;stroke-linejoin:miter;stroke-miterlimit:4;stroke-dasharray:none;stroke-dashoffset:0;stroke-opacity:1;marker:none;marker-start:none;marker-mid:none;marker-end:none;paint-order:normal;enable-background:new"
           id="rect1110-8"
           width="416"
           height="416"
           x="48"
           y="-164"
           rx="32"
           ry="32" />
        <rect
           style="display:inline;opacity:0.1;fill:#2864b0;fill-opacity:1;stroke:none;stroke-width:1;stroke-linecap:butt;stroke-linejoin:miter;stroke-miterlimit:4;stroke-dasharray:none;stroke-dashoffset:0;stroke-opacity:1;marker:none;marker-start:none;marker-mid:none;marker-end:none;paint-order:normal;enable-background:new"
           id="rect1110-8-9"
           width="448"
           height="320"
           x="32"
           y="-116"
           rx="32"
           ry="32" />
      </g>
      <circle
         id="circle1649"
         r="0"
         cy="258"
         cx="88"
         style="fill:#3d3846;fill-opacity:0.99179999;stroke-width:4" />
    </g>
    <g
       style="display:inline"
       id="layer9">
      <path
         id="path1639"
         d="m 64,182 c -30.928,0 -56,25.072 -56,56 0,30.928 25.072,56 56,56 30.928,0 56,-25.072 56,-56 0,-30.928 -25.072,-56 -56,-56 z m 0,36 a 20,20 0 0 1 20,20 20,20 0 0 1 -20,20 20,20 0 0 1 -20,-20 20,20 0 0 1 20,-20 z"
         style="display:inline;fill:url(#a-6);stroke-width:4;enable-background:new" />
      <path
         id="path1641"
         d="m 64,180 c -30.928,0 -56,25.072 -56,56 0,30.928 25.072,56 56,56 30.928,0 56,-25.072 56,-56 0,-30.928 -25.072,-56 -56,-56 z m 0,36 a 20,20 0 0 1 20,20 20,20 0 0 1 -20,20 20,20 0 0 1 -20,-20 20,20 0 0 1 20,-20 z"
         style="display:inline;fill:#deddda;stroke-width:4;enable-background:new" />
      <path
         id="path1643"
         d="m 64,216 a 20,20 0 0 0 -20,20 20,20 0 0 0 20,20 20,20 0 0 0 20,-20 20,20 0 0 0 -20,-20 z m 0,12 a 8,8 0 0 1 8,8 8,8 0 0 1 -8,8 8,8 0 0 1 -8,-8 8,8 0 0 1 8,-8 z"
         style="display:inline;fill:#c0bfbc;fill-opacity:0.94672002;stroke-width:4;enable-background:new" />
      <path
         id="path1645"
         d="m 64,180 v 36 a 20,20 0 0 1 14.1328,5.8672 l 25.4688,-25.4688 C 93.4676,186.2644 79.464,180 64,180 Z M 49.8672,250.132 24.3984,275.6008 C 34.5324,285.7348 48.536,291.9992 64,291.9992 v -36 A 20,20 0 0 1 49.8672,250.132 Z"
         style="display:inline;opacity:0.5;fill:#f6f5f4;stroke-width:4;enable-background:new" />
      <path
         id="path1647"
         d="m 64,212 a 24,24 0 0 0 -24,24 24,24 0 0 0 24,24 24,24 0 0 0 24,-24 24,24 0 0 0 -24,-24 z m 0,4 a 20,20 0 0 1 20,20 20,20 0 0 1 -20,20 20,20 0 0 1 -20,-20 20,20 0 0 1 20,-20 z"
         style="display:inline;fill:#9a9996;fill-opacity:0.94672002;stroke-width:4;enable-background:new" />
      <path
         id="rect1732-0"
         d="m 117.05273,250 h -14 c -3,-1 -2.95959,-1.36813 -3,-3 -0.0518,-2.0914 3,-4 3,-7 0,-2.216 -1.784,-4 -4,-4 h -4 c -2.216,0 -4,1.784 -4,4 0,3 2.91396,4.75135 3,7 0.0618,1.6148 0,2 -2.89844,3 H 75.05273 v 16 c -1,3 -1.36813,2.95959 -3,3 -2.0914,0.0518 -4,-3 -7,-3 -2.216,0 -4,1.784 -4,4 v 4 c 0,2.216 1.784,4 4,4 3,0 4.75135,-2.91396 7,-3 1.6148,-0.0618 2,0 3,2.89844 V 292 h 42 v -14.24609 c -0.95907,-2.7399 -1.36289,-2.81455 -2.94727,-2.75391 -2.24865,0.086 -4,3 -7,3 -2.216,0 -4,-1.784 -4,-4 v -4 c 0,-2.216 1.784,-4 4,-4 3,0 4.90859,3.0518 7,3 1.60121,-0.0396 1.98869,-0.0189 2.94727,-2.85156 z"
         style="display:inline;opacity:1;fill:#1a5fb4;fill-opacity:1;stroke:none;stroke-width:1;stroke-linecap:butt;stroke-linejoin:round;stroke-miterlimit:4;stroke-dasharray:none;stroke-opacity:1;enable-background:new" />
      <path
         id="rect1732"
         d="m 117,248 h -14 c -3,-1 -2.95959,-1.36813 -3,-3 -0.0518,-2.0914 3,-4 3,-7 0,-2.216 -1.784,-4 -4,-4 h -4 c -2.216,0 -4,1.784 -4,4 0,3 2.91396,4.75135 3,7 0.0618,1.6148 2e-6,2 -2.898438,3 H 75 v 16 c -1,3 -1.36813,2.95959 -3,3 -2.0914,0.0518 -4,-3 -7,-3 -2.216,0 -4,1.784 -4,4 v 4 c 0,2.216 1.784,4 4,4 3,0 4.75135,-2.91396 7,-3 1.6148,-0.0618 2,0 3,2.89844 V 290 h 42 v -14.24609 c -0.95907,-2.7399 -1.36289,-2.81455 -2.94727,-2.75391 -2.24865,0.086 -4,3 -7,3 -2.216,0 -4,-1.784 -4,-4 v -4 c 0,-2.216 1.784,-4 4,-4 3,0 4.90859,3.0518 7,3 1.60121,-0.0396 1.98869,-0.0189 2.94727,-2.85156 z"
         style="display:inline;opacity:1;fill:#3584e4;fill-opacity:1;stroke:none;stroke-width:1;stroke-linecap:butt;stroke-linejoin:round;stroke-miterlimit:4;stroke-dasharray:none;stroke-opacity:1;enable-background:new" />
    </g>
  </g>
</svg>
